# xmcd
#
# Track frame offsets:
#	150
#	32110
#	59057
#	85282
#	112617
#	132007
#	167637
#	201182
#	226882
#	254575
#	284570
#	309252
#
# Disc length: 4522 seconds
#
# Revision: 1
# Processed by: cddbd v1.5.2PL0 Copyright (c) Steve Scherf et al.
# Submitted via: audiograbber 1.83.01
#
DISCID=a311a80c
DTITLE=Ralph MacDonald - Sound Of A Drum - Counterpoint
DYEAR=1999
DGENRE=Jazz+Funk
TTITLE0=Sound Of A Drum
TTITLE1=Where Is The Love
TTITLE2=The Only Time You Say You Love Me (Is When We're Making Love)
TTITLE3=Jam On The Groove
TTITLE4=Mister Magic
TTITLE5=Calypso Breakdown
TTITLE6=I Need Someone
TTITLE7=You Are In Love
TTITLE8=Tell The Truth
TTITLE9=Discolypso
TTITLE10=Always Something Missing
TTITLE11=East Dry River
EXTD=This two-fer assembles percussion virtuoso Ralph MacDonald's first and thi
EXTD=rd LPs for the TK label subsidiary Marlin. (From AllMusicGuide)
EXTT0=
EXTT1=
EXTT2=
EXTT3=
EXTT4=
EXTT5=
EXTT6=
EXTT7=
EXTT8=
EXTT9=
EXTT10=
EXTT11=
PLAYORDER=
